<?xml version="1.0" encoding="UTF-8" standalone="no"?>
<svg
   xmlns:svg="http://www.w3.org/2000/svg"
   xmlns="http://www.w3.org/2000/svg"
   version="1.1"
   width="73.220779"
   height="54.821011"
   id="cloud-svg">
  <defs
     id="defs6023">
    <linearGradient
       x1="322.1673"
       x2="390.31808"
       id="Gradient_6"
       gradientUnits="userSpaceOnUse"
       y1="209.80128"
       y2="261.05518"
       gradientTransform="translate(-320.03499,-207.81336)">
      <stop
         offset="0"
         stop-color="white"
         id="stop4933" />
      <stop
         offset="1"
         stop-color="#5285cc"
         id="stop4935" />
    </linearGradient>
  </defs>
  <path
     id="path5132"
     d="m 65.98434,24.363914 c 12.8003,3.04652 7.69587,28.69319 -12.72348,24.31712 -1.89446,8.53036 -25.63942,7.14579 -25.48418,0 -14.88881,9.13955 -33.9158197,-9.08453 -21.1535297,-18.22408 -15.31411,-4.43109 0.19325,-28.30522 12.7614897,-24.31712 1.00584,-6.64720004 23.47409,-8.97336 25.44617,0 12.7227,-9.58311 39.25152,5.15146 21.15353,18.22408 z"
     style="fill:#c2d5ff;stroke:#000000;stroke-width:0.5;stroke-linecap:butt;stroke-linejoin:miter" />
  <path
     id="path5136"
     d="m 8.6138303,30.246944 c -11.91749,-2.83641 -7.16509,-26.71436 11.8459597,-22.64009 1.76381,-7.94206004 23.87111,-6.65297005 23.72658,0 13.86194,-8.50924004 31.57669,8.45802 19.6946,16.96727 14.25792,4.1255 -0.17992,26.35314 -11.88136,22.64009 -0.93646,6.18878 -21.85511,8.35451 -23.69118,0 -11.84522,8.92221 -36.5443997,-4.79619 -19.6945997,-16.96727 z"
     style="fill:url(#Gradient_6);fill-opacity:1;stroke:#808080;stroke-width:2;stroke-linecap:butt;stroke-linejoin:miter" />
</svg>
