<?xml version="1.0" encoding="UTF-8" standalone="no"?>
<svg
   xmlns:svg="http://www.w3.org/2000/svg"
   xmlns="http://www.w3.org/2000/svg"
   xmlns:xlink="http://www.w3.org/1999/xlink"
   version="1.1"
   width="89.919098"
   height="25.633207"
   id="queue-svg">
  <defs
     id="defs4285">
    <linearGradient
       id="linearGradient5449"
       gradientUnits="userSpaceOnUse"
       x1="0"
       x2="0"
       y2="8.5403728"
       gradientTransform="matrix(1.1749016,0,0,1,0.74114562,1.8908179)">
      <stop
         offset="0"
         stop-color="#ccc"
         id="stop4962" />
      <stop
         offset="1"
         stop-color="#999"
         id="stop4964" />
    </linearGradient>
  </defs>
  <path
     style="fill:#f9f9f9;fill-opacity:1;stroke:#8b8b8b;stroke-width:0.57499999000000002;stroke-linecap:butt;stroke-linejoin:miter;stroke-miterlimit:4;stroke-opacity:1;stroke-dasharray:none"
     d="m 0.1875,13.016423 c 0,-6.9324905 0.86248,-12.5549504 1.9256,-12.5549504 0.2613,0 0.51095,0.34358 0.73726,0.9590499 0.69682,1.8884401 1.18794,6.36892 1.18794,11.5959005 0,5.22944 -0.4915,9.70829 -1.18794,11.60002 -0.22631,0.61301 -0.47518,0.95493 -0.73726,0.95493 -1.06312,0 -1.9256,-5.61997 -1.9256,-12.55495 l 0,0 z"
     id="path5284" />
  <path
     style="fill:url(#linearGradient5449);stroke:#bfbfbf;stroke-width:0.575;stroke-linecap:butt;stroke-linejoin:miter;stroke-miterlimit:4;stroke-dasharray:none"
     d="m 4.2658505,12.890818 c 0,-6.9332701 -1.0127652,-12.55571005 -2.260076,-12.55571005 l 85.4666075,0 c 1.24677,0 2.259218,5.62243995 2.259218,12.55571005 0,6.93328 -1.012882,12.55489 -2.259218,12.55489 l -85.4670422,0 c 1.2481685,-8.3e-4 2.2605107,-5.62078 2.2605107,-12.55489 l 0,0 z"
     id="path5272" />
  <path
     style="fill:none;stroke:#f9f9f9;stroke-width:0.675;stroke-linecap:butt;stroke-linejoin:miter;stroke-miterlimit:4;stroke-opacity:1;stroke-dasharray:0.675,0.675;stroke-dashoffset:0"
     d="m 87.111989,25.434197 c -1.06274,0 -1.9256,-5.61997 -1.9256,-12.55492 0,-6.93248 0.86286,-12.55408005 1.9256,-12.55408005"
     id="path5286" />
</svg>
