<?xml version="1.0" encoding="UTF-8" standalone="no"?>
<svg
   xmlns:svg="http://www.w3.org/2000/svg"
   xmlns="http://www.w3.org/2000/svg"
   xmlns:xlink="http://www.w3.org/1999/xlink"
   version="1.1"
   width="75"
   height="43.669998"
   id="user-svg">
  <defs
     id="defs4285">
    <linearGradient
       x1="0"
       x2="1"
       id="Gradient_8"
       gradientUnits="userSpaceOnUse">
      <stop
         offset="0"
         stop-color="#c4bebc"
         id="stop4968" />
      <stop
         offset="1"
         stop-color="#d7d0cd"
         id="stop4970" />
    </linearGradient>
    <linearGradient
       xlink:href="#Gradient_8"
       id="linearGradient5718"
       gradientTransform="matrix(0,-34.0216,34.0216,0,14.0145,58.346588)" />
    <linearGradient
       xlink:href="#Gradient_8"
       id="linearGradient5720"
       gradientTransform="matrix(0,-8.86476,8.86476,0,13.79838,24.254748)" />
  </defs>
  <g
     id="user-symbol"
     transform="translate(0,-14.677183)">
    <path
       style="fill:#a19d9c;stroke:none"
       d="m 21.599684,25.40053 0.525081,-0.32265 -0.281108,-0.75317 -1.027206,-1.028961 -2.850915,0 -0.773494,0 -0.388072,0 -0.494153,0 0.571071,-1.481579 0.733711,-4.164538 0.02033,-0.11049 -1.603575,-1.600019 c -0.780581,-0.782343 -1.856411,-1.264135 -3.046273,-1.264135 -1.191632,0 -2.268347,0.481792 -3.04716,1.264135 -0.780558,0.778807 -1.260584,1.856374 -1.260584,3.04535 0,1.188976 0.480026,2.266587 1.260584,3.045394 l 1.028987,1.02896 0,0 c -2e-6,0.0035 -2e-6,0.0035 0,0.0035 l 0.23691,0.233384 -2.425698,0 -0.789413,0 -2.8332045,0 L 0,37.120599 l 1.0289719,1.028982 0.9114129,0 0.6090629,-1.028982 1.0723131,0 1.8351868,-4.916795 2.5308804,-4.282077 0,1.280905 0,12.564274 0.00353,0 0,15.549531 1.0289719,1.030751 0.6665569,0 0.1644059,-1.030751 1.6778383,0 0,-10.417043 0.84422,-5.250054 2.070333,0 0,1.02896 0,14.638137 1.02898,1.030751 0.735485,0 0.293495,-1.030751 1.479809,0 0,-16.135612 -0.01768,0 0,-13.546418 0.68863,-0.423445 0.338576,0.911395 3.354779,8.997363 1.027232,1.02897 0.804423,0 0.414612,-1.02897 1.376377,0 -4.368716,-11.71919 0,0 z"
       id="path5554" />
    <path
       style="fill:url(#linearGradient5718);stroke:none"
       d="m 22.123867,25.078158 -0.28111,-0.75317 -2.850889,0 -0.771754,0 -8.412994,0 -0.7911805,0 -2.8332283,0 L 1.029,38.149855 l 0.9114003,0 2.7130087,0 3.3353256,-8.946952 1.0272049,-2.759866 0,16.351343 0.0053,0 0,15.552208 0.6665457,0 2.8694478,0 0,-15.668005 1.887338,0 1.028969,0 0,15.668005 0.735491,0 2.800499,0 0,-16.134758 -0.01766,0 0,-14.088297 0,-1.729998 4.381983,11.75632 0.805309,0 2.82084,0 z"
       id="path5556" />
    <circle
       d="m 18.230767,19.822369 c 0,2.447939 -1.984447,4.432386 -4.432387,4.432386 -2.44794,0 -4.432387,-1.984447 -4.432387,-4.432386 0,-2.44794 1.984447,-4.432387 4.432387,-4.432387 2.44794,0 4.432387,1.984447 4.432387,4.432387 z"
       style="fill:url(#linearGradient5720);stroke:none"
       cx="13.79838"
       cy="19.822369"
       r="4.4323869"
       id="circle5558" />
  </g>
</svg>
