<?xml version="1.0" encoding="UTF-8" standalone="no"?>
<!DOCTYPE svg PUBLIC "-//W3C//DTD SVG 1.1//EN"
 "http://www.w3.org/Graphics/SVG/1.1/DTD/svg11.dtd">
<!-- Generated by graphviz version 2.39.0 (20140909.1705)
 -->
<!-- Title: SampleComponentDiagram Pages: 1 -->
<svg width="666pt" height="303pt"
 viewBox="0.00 0.00 665.61 303.00" xmlns="http://www.w3.org/2000/svg" xmlns:xlink="http://www.w3.org/1999/xlink">
<g id="graph0" class="graph" transform="scale(1 1) rotate(0) translate(4 299)">
<title>SampleComponentDiagram</title>
<polygon fill="white" stroke="none" points="-4,4 -4,-299 661.605,-299 661.605,4 -4,4"/>
<text text-anchor="middle" x="328.803" y="-6" font-family="Helvetica,sans-Serif" font-size="10.00">Sample Component Diagram</text>
<g id="clust1" class="cluster"><title>cluster0</title>
<polygon fill="#fc93cb" stroke="#2b6f6f" points="104.463,-51 104.463,-287 206.463,-287 206.463,-51 104.463,-51"/>
<text text-anchor="middle" x="155.463" y="-275" font-family="Helvetica,sans-Serif" font-size="10.00">Web Application</text>
</g>
<g id="clust2" class="cluster"><title>cluster1</title>
<polygon fill="#96f4eb" stroke="#2b6f6f" points="226.463,-62 226.463,-278 649.605,-278 649.605,-62 226.463,-62"/>
<text text-anchor="middle" x="438.034" y="-266" font-family="Helvetica,sans-Serif" font-size="10.00">Backend</text>
</g>
<g id="clust3" class="cluster"><title>cluster3</title>
<polygon fill="none" stroke="none" points="8,-132 8,-238 84.4629,-238 84.4629,-132 8,-132"/>
</g>
<!-- portal -->
<g id="node1" class="node"><title>portal</title>
<image xlink:href="portal.svg" width="59.6915px" height="40px" preserveAspectRatio="xMinYMin meet" x="125.617" y="-261"/>
<text text-anchor="middle" x="155.463" y="-243" font-family="Helvetica,sans-Serif" font-size="10.00">Customer</text>
<text text-anchor="middle" x="155.463" y="-233" font-family="Helvetica,sans-Serif" font-size="10.00">Portal</text>
</g>
<!-- payment -->
<g id="payment" class="node"><title>payment</title>
<image xlink:href="service.svg" width="86px" height="36px" preserveAspectRatio="xMinYMin meet" x="112.463" y="-95"/>
<text text-anchor="middle" x="155.463" y="-74" font-family="Helvetica,sans-Serif" font-size="10.00">Payment</text>
</g>
<!-- eventQueue -->
<g id="node10" class="node"><title>eventQueue</title>
<image xlink:href="queue.svg" width="87.2854px" height="26px" preserveAspectRatio="xMinYMin meet" x="234.391" y="-195"/>
<text text-anchor="middle" x="278.034" y="-179" font-family="Helvetica,sans-Serif" font-size="10.00">Event ActiveMQ</text>
</g>
<!-- payment&#45;&gt;eventQueue -->
<g id="edge14" class="edge"><title>payment&#45;&gt;eventQueue</title>
<path fill="none" stroke="#003388" stroke-dasharray="5,2" d="M196.421,-95.1161C200.094,-97.7561 203.527,-100.712 206.463,-104 222.678,-122.162 210.206,-136.875 226.463,-155 227.205,-155.828 227.979,-156.634 228.78,-157.419"/>
<polygon fill="#003388" stroke="#003388" points="236.618,-163.929 226.05,-161.002 232.772,-160.735 228.925,-157.54 228.925,-157.54 228.925,-157.54 232.772,-160.735 231.8,-154.078 236.618,-163.929 236.618,-163.929"/>
</g>
<!-- user -->
<g id="user" class="node"><title>user</title>
<image xlink:href="service.svg" width="86px" height="36px" preserveAspectRatio="xMinYMin meet" x="112.463" y="-203"/>
<text text-anchor="middle" x="155.463" y="-182" font-family="Helvetica,sans-Serif" font-size="10.00">User</text>
</g>
<!-- user&#45;&gt;eventQueue -->
<g id="edge16" class="edge"><title>user&#45;&gt;eventQueue</title>
<path fill="none" stroke="#003388" stroke-dasharray="5,2" d="M198.677,-183.942C206.909,-183.741 215.619,-183.528 224.136,-183.319"/>
<polygon fill="#003388" stroke="#003388" points="234.383,-183.068 224.496,-187.812 229.385,-183.191 224.386,-183.313 224.386,-183.313 224.386,-183.313 229.385,-183.191 224.276,-178.815 234.383,-183.068 234.383,-183.068"/>
</g>
<!-- product -->
<g id="product" class="node"><title>product</title>
<image xlink:href="service.svg" width="86px" height="36px" preserveAspectRatio="xMinYMin meet" x="112.463" y="-149"/>
<text text-anchor="middle" x="155.463" y="-128" font-family="Helvetica,sans-Serif" font-size="10.00">Product</text>
</g>
<!-- product&#45;&gt;eventQueue -->
<g id="edge15" class="edge"><title>product&#45;&gt;eventQueue</title>
<path fill="none" stroke="#003388" stroke-dasharray="5,2" d="M198.677,-148.981C207.18,-152.519 216.194,-156.269 224.977,-159.924"/>
<polygon fill="#003388" stroke="#003388" points="234.383,-163.838 223.422,-164.151 229.767,-161.917 225.151,-159.996 225.151,-159.996 225.151,-159.996 229.767,-161.917 226.879,-155.841 234.383,-163.838 234.383,-163.838"/>
</g>
<!-- billing -->
<g id="billing" class="node"><title>billing</title>
<image xlink:href="service.svg" width="86px" height="36px" preserveAspectRatio="xMinYMin meet" x="357.605" y="-197"/>
<text text-anchor="middle" x="400.605" y="-176" font-family="Helvetica,sans-Serif" font-size="10.00">Billing API</text>
</g>
<!-- sqlServer -->
<g id="node6" class="node"><title>sqlServer</title>
<image xlink:href="database.svg" width="42px" height="42px" preserveAspectRatio="xMinYMin meet" x="493.605" y="-252"/>
<text text-anchor="middle" x="514.605" y="-233" font-family="Helvetica,sans-Serif" font-size="10.00">SQL</text>
<text text-anchor="middle" x="514.605" y="-223" font-family="Helvetica,sans-Serif" font-size="10.00">Server</text>
</g>
<!-- billing&#45;&gt;sqlServer -->
<g id="edge18" class="edge"><title>billing&#45;&gt;sqlServer</title>
<path fill="none" stroke="#003388" stroke-dasharray="5,2" d="M440.157,-197.041C452.437,-202.642 465.913,-208.789 477.984,-214.296"/>
<polygon fill="#003388" stroke="#003388" points="487.314,-218.551 476.349,-218.495 482.765,-216.476 478.216,-214.401 478.216,-214.401 478.216,-214.401 482.765,-216.476 480.084,-210.307 487.314,-218.551 487.314,-218.551"/>
</g>
<!-- loggingJournal -->
<g id="node8" class="node"><title>loggingJournal</title>
<image xlink:href="component.svg" width="70px" height="36px" preserveAspectRatio="xMinYMin meet" x="479.605" y="-192"/>
<text text-anchor="middle" x="514.605" y="-176" font-family="Helvetica,sans-Serif" font-size="10.00">Logging</text>
<text text-anchor="middle" x="514.605" y="-166" font-family="Helvetica,sans-Serif" font-size="10.00">Journal</text>
</g>
<!-- billing&#45;&gt;loggingJournal -->
<g id="edge19" class="edge"><title>billing&#45;&gt;loggingJournal</title>
<path fill="none" stroke="#003388" stroke-dasharray="5,2" d="M443.704,-177.11C452.131,-176.74 460.99,-176.352 469.482,-175.979"/>
<polygon fill="#003388" stroke="#003388" points="479.603,-175.535 469.81,-180.469 474.607,-175.754 469.612,-175.973 469.612,-175.973 469.612,-175.973 474.607,-175.754 469.415,-171.478 479.603,-175.535 479.603,-175.535"/>
</g>
<!-- riak -->
<g id="node7" class="node"><title>riak</title>
<image xlink:href="cloud.svg" width="56px" height="43px" preserveAspectRatio="xMinYMin meet" x="585.605" y="-158.5"/>
<text text-anchor="middle" x="613.605" y="-134" font-family="Helvetica,sans-Serif" font-size="10.00">Riak</text>
</g>
<!-- loggingJournal&#45;&gt;riak -->
<g id="edge20" class="edge"><title>loggingJournal&#45;&gt;riak</title>
<path fill="none" stroke="#003388" stroke-dasharray="5,2" d="M549.788,-160.851C558.268,-157.682 567.361,-154.283 575.949,-151.074"/>
<polygon fill="#003388" stroke="#003388" points="585.371,-147.552 577.579,-155.269 580.687,-149.303 576.003,-151.053 576.003,-151.053 576.003,-151.053 580.687,-149.303 574.428,-146.838 585.371,-147.552 585.371,-147.552"/>
</g>
<!-- watchdog -->
<g id="node9" class="node"><title>watchdog</title>
<image xlink:href="component.svg" width="70px" height="36px" preserveAspectRatio="xMinYMin meet" x="243.034" y="-146"/>
<text text-anchor="middle" x="278.034" y="-125" font-family="Helvetica,sans-Serif" font-size="10.00">Watchdog</text>
</g>
<!-- watchdog&#45;&gt;payment -->
<g id="edge8" class="edge"><title>watchdog&#45;&gt;payment</title>
<path fill="none" stroke="#003388" stroke-dasharray="5,2" d="M207.999,-98.8595 219.784,-103.763 232.009,-108.85 242.883,-113.374"/>
<polygon fill="#003388" stroke="#003388" points="198.677,-94.9807 209.638,-94.6676 203.293,-96.9015 207.91,-98.8223 207.91,-98.8223 207.91,-98.8223 203.293,-96.9015 206.181,-102.977 198.677,-94.9807 198.677,-94.9807"/>
</g>
<!-- watchdog&#45;&gt;user -->
<g id="edge9" class="edge"><title>watchdog&#45;&gt;user</title>
<path fill="none" stroke="#003388" stroke-dasharray="5,2" d="M203.59,-162.619 216.676,-156.534 230.603,-150.057 242.828,-144.372"/>
<polygon fill="#003388" stroke="#003388" points="194.245,-166.965 201.415,-158.668 198.779,-164.856 203.313,-162.748 203.313,-162.748 203.313,-162.748 198.779,-164.856 205.21,-166.828 194.245,-166.965 194.245,-166.965"/>
</g>
<!-- watchdog&#45;&gt;product -->
<g id="edge10" class="edge"><title>watchdog&#45;&gt;product</title>
<path fill="none" stroke="#003388" stroke-dasharray="5,2" d="M208.7,-129.697 220.267,-129.414 232.224,-129.121 242.883,-128.86"/>
<polygon fill="#003388" stroke="#003388" points="198.677,-129.942 208.564,-125.199 203.675,-129.82 208.674,-129.698 208.674,-129.698 208.674,-129.698 203.675,-129.82 208.784,-134.196 198.677,-129.942 198.677,-129.942"/>
</g>
<!-- watchdog&#45;&gt;billing -->
<g id="edge6" class="edge"><title>watchdog&#45;&gt;billing</title>
<path fill="none" stroke="#003388" stroke-dasharray="5,2" d="M313.158,-142.615C323.987,-147.12 336.158,-152.184 347.9,-157.07"/>
<polygon fill="#003388" stroke="#003388" points="357.191,-160.936 346.229,-161.249 352.574,-159.015 347.958,-157.094 347.958,-157.094 347.958,-157.094 352.574,-159.015 349.687,-152.939 357.191,-160.936 357.191,-160.936"/>
</g>
<!-- watchdog&#45;&gt;riak -->
<g id="edge5" class="edge"><title>watchdog&#45;&gt;riak</title>
<path fill="none" stroke="#003388" stroke-dasharray="5,2" d="M313.312,-128.946C376.753,-130.648 509.588,-134.21 575.221,-135.971"/>
<polygon fill="#003388" stroke="#003388" points="585.534,-136.247 575.417,-140.477 580.536,-136.113 575.537,-135.979 575.537,-135.979 575.537,-135.979 580.536,-136.113 575.658,-131.481 585.534,-136.247 585.534,-136.247"/>
</g>
<!-- supportPortal -->
<g id="node11" class="node"><title>supportPortal</title>
<image xlink:href="portal.svg" width="54px" height="40px" preserveAspectRatio="xMinYMin meet" x="373.605" y="-114"/>
<text text-anchor="middle" x="400.605" y="-96" font-family="Helvetica,sans-Serif" font-size="10.00">Support</text>
<text text-anchor="middle" x="400.605" y="-86" font-family="Helvetica,sans-Serif" font-size="10.00">Portal</text>
</g>
<!-- watchdog&#45;&gt;supportPortal -->
<g id="edge7" class="edge"><title>watchdog&#45;&gt;supportPortal</title>
<path fill="none" stroke="#003388" stroke-dasharray="5,2" d="M313.158,-118.257C328.826,-113.911 347.303,-108.786 363.226,-104.369"/>
<polygon fill="#003388" stroke="#003388" points="373.266,-101.584 364.833,-108.593 368.448,-102.92 363.63,-104.257 363.63,-104.257 363.63,-104.257 368.448,-102.92 362.427,-99.9204 373.266,-101.584 373.266,-101.584"/>
</g>
<!-- eventQueue&#45;&gt;billing -->
<g id="edge17" class="edge"><title>eventQueue&#45;&gt;billing</title>
<path fill="none" stroke="#003388" stroke-dasharray="5,2" d="M321.939,-180.925C330.143,-180.725 338.801,-180.513 347.254,-180.306"/>
<polygon fill="#003388" stroke="#003388" points="357.418,-180.057 347.532,-184.8 352.42,-180.179 347.421,-180.302 347.421,-180.302 347.421,-180.302 352.42,-180.179 347.311,-175.803 357.418,-180.057 357.418,-180.057"/>
</g>
<!-- riakAdmin -->
<g id="node12" class="node"><title>riakAdmin</title>
<image xlink:href="portal.svg" width="54px" height="48px" preserveAspectRatio="xMinYMin meet" x="487.605" y="-118"/>
<text text-anchor="middle" x="514.605" y="-106" font-family="Helvetica,sans-Serif" font-size="10.00">Riak</text>
<text text-anchor="middle" x="514.605" y="-96" font-family="Helvetica,sans-Serif" font-size="10.00">Admin</text>
<text text-anchor="middle" x="514.605" y="-86" font-family="Helvetica,sans-Serif" font-size="10.00">Web</text>
<text text-anchor="middle" x="514.605" y="-76" font-family="Helvetica,sans-Serif" font-size="10.00">Portal</text>
</g>
<!-- riakAdmin&#45;&gt;riak -->
<g id="edge13" class="edge"><title>riakAdmin&#45;&gt;riak</title>
<path fill="none" stroke="#003388" stroke-dasharray="5,2" d="M541.658,-105.75C552.303,-110.374 564.705,-115.76 576.184,-120.746"/>
<polygon fill="#003388" stroke="#003388" points="585.55,-124.814 574.585,-124.958 580.964,-122.823 576.378,-120.831 576.378,-120.831 576.378,-120.831 580.964,-122.823 578.171,-116.703 585.55,-124.814 585.55,-124.814"/>
</g>
<!-- customer -->
<g id="node13" class="node"><title>customer</title>
<image xlink:href="user.svg" width="59.6915px" height="36px" preserveAspectRatio="xMinYMin meet" x="16.3857" y="-230"/>
<text text-anchor="middle" x="46.2314" y="-209" font-family="Helvetica,sans-Serif" font-size="10.00">Customer</text>
</g>
<!-- customer&#45;&gt;portal -->
<g id="edge1" class="edge"><title>customer&#45;&gt;portal</title>
<path fill="none" stroke="#003388" stroke-dasharray="5,2" d="M76.0794,-219.924C88.3614,-223.185 102.764,-227.009 115.904,-230.498"/>
<polygon fill="#003388" stroke="#003388" points="125.651,-233.085 114.831,-234.868 120.818,-231.802 115.986,-230.519 115.986,-230.519 115.986,-230.519 120.818,-231.802 117.141,-226.17 125.651,-233.085 125.651,-233.085"/>
</g>
<!-- apiClient -->
<g id="node14" class="node"><title>apiClient</title>
<image xlink:href="user.svg" width="60.9294px" height="36px" preserveAspectRatio="xMinYMin meet" x="15.7668" y="-176"/>
<text text-anchor="middle" x="46.2314" y="-155" font-family="Helvetica,sans-Serif" font-size="10.00">API Client</text>
</g>
<!-- apiClient&#45;&gt;payment -->
<g id="edge2" class="edge"><title>apiClient&#45;&gt;payment</title>
<path fill="none" stroke="#003388" stroke-dasharray="5,2" d="M63.2863,-139.932C74.3765,-128.775 89.5098,-114.614 104.463,-104 106.117,-102.826 107.829,-101.668 109.579,-100.532"/>
<polygon fill="#003388" stroke="#003388" points="118.553,-95.0536 112.363,-104.105 114.286,-97.6588 110.018,-100.264 110.018,-100.264 110.018,-100.264 114.286,-97.6588 107.673,-96.4232 118.553,-95.0536 118.553,-95.0536"/>
</g>
<!-- apiClient&#45;&gt;user -->
<g id="edge3" class="edge"><title>apiClient&#45;&gt;user</title>
<path fill="none" stroke="#003388" stroke-dasharray="5,2" d="M76.6585,-165.521C84.639,-167.494 93.4831,-169.68 102.278,-171.854"/>
<polygon fill="#003388" stroke="#003388" points="112.137,-174.291 101.35,-176.26 107.283,-173.091 102.429,-171.891 102.429,-171.891 102.429,-171.891 107.283,-173.091 103.509,-167.523 112.137,-174.291 112.137,-174.291"/>
</g>
<!-- apiClient&#45;&gt;product -->
<g id="edge4" class="edge"><title>apiClient&#45;&gt;product</title>
<path fill="none" stroke="#003388" stroke-dasharray="5,2" d="M76.6585,-150.479C84.639,-148.506 93.4831,-146.32 102.278,-144.146"/>
<polygon fill="#003388" stroke="#003388" points="112.137,-141.709 103.509,-148.477 107.283,-142.909 102.429,-144.109 102.429,-144.109 102.429,-144.109 107.283,-142.909 101.35,-139.74 112.137,-141.709 112.137,-141.709"/>
</g>
<!-- devOps -->
<g id="node15" class="node"><title>devOps</title>
<image xlink:href="user.svg" width="58px" height="36px" preserveAspectRatio="xMinYMin meet" x="249.034" y="-54"/>
<text text-anchor="middle" x="278.034" y="-33" font-family="Helvetica,sans-Serif" font-size="10.00">DevOps</text>
</g>
<!-- devOps&#45;&gt;supportPortal -->
<g id="edge12" class="edge"><title>devOps&#45;&gt;supportPortal</title>
<path fill="none" stroke="#003388" stroke-dasharray="5,2" d="M307.082,-49.7452C324.203,-57.8467 346.016,-68.1686 364.269,-76.8057"/>
<polygon fill="#003388" stroke="#003388" points="373.446,-81.1482 362.482,-80.9385 368.926,-79.0095 364.407,-76.8709 364.407,-76.8709 364.407,-76.8709 368.926,-79.0095 366.331,-72.8033 373.446,-81.1482 373.446,-81.1482"/>
</g>
<!-- devOps&#45;&gt;riakAdmin -->
<g id="edge11" class="edge"><title>devOps&#45;&gt;riakAdmin</title>
<path fill="none" stroke="#003388" stroke-dasharray="5,2" d="M307.175,-39.1848C340.585,-43.2755 396.776,-51.5046 443.605,-65 455.084,-68.308 467.238,-72.8593 478.183,-77.3761"/>
<polygon fill="#003388" stroke="#003388" points="487.444,-81.3043 476.481,-81.5418 482.841,-79.3517 478.238,-77.3991 478.238,-77.3991 478.238,-77.3991 482.841,-79.3517 479.995,-73.2564 487.444,-81.3043 487.444,-81.3043"/>
</g>
</g>
</svg>
