<?xml version="1.0" encoding="UTF-8" standalone="no"?>
<!DOCTYPE svg PUBLIC "-//W3C//DTD SVG 1.1//EN" "http://www.w3.org/Graphics/SVG/1.1/DTD/svg11.dtd">
<!-- Generated by graphviz version 2.39.0 (20140909.1705)
 -->
<!-- Title: SampleComponentDiagram Pages: 1 -->
<svg xmlns="http://www.w3.org/2000/svg" xmlns:xlink="http://www.w3.org/1999/xlink" width="666pt" height="303pt" viewBox="0.00 0.00 665.61 303.00">
<g id="graph0" class="graph" transform="scale(1 1) rotate(0) translate(4 299)">
<title>SampleComponentDiagram</title>
<polygon fill="white" stroke="none" points="-4,4 -4,-299 661.605,-299 661.605,4 -4,4"/>
<text text-anchor="middle" x="328.803" y="-6" font-family="Helvetica,sans-Serif" font-size="10.00">Sample Component Diagram</text>
<g id="clust1" class="cluster"><title>cluster0</title>
<polygon fill="#fc93cb" stroke="#2b6f6f" points="104.463,-51 104.463,-287 206.463,-287 206.463,-51 104.463,-51"/>
<text text-anchor="middle" x="155.463" y="-275" font-family="Helvetica,sans-Serif" font-size="10.00">Web Application</text>
</g>
<g id="clust2" class="cluster"><title>cluster1</title>
<polygon fill="#96f4eb" stroke="#2b6f6f" points="226.463,-62 226.463,-278 649.605,-278 649.605,-62 226.463,-62"/>
<text text-anchor="middle" x="438.034" y="-266" font-family="Helvetica,sans-Serif" font-size="10.00">Backend</text>
</g>
<g id="clust3" class="cluster"><title>cluster3</title>
<polygon fill="none" stroke="none" points="8,-132 8,-238 84.4629,-238 84.4629,-132 8,-132"/>
</g>
<!-- portal -->
<g id="node1" class="node"><title>portal</title>
<use x="125.617" y="-261" width="59.6915px" height="40px" xlink:href="#portal-symbol"/>
<text text-anchor="middle" x="155.463" y="-243" font-family="Helvetica,sans-Serif" font-size="10.00">Customer</text>
<text text-anchor="middle" x="155.463" y="-233" font-family="Helvetica,sans-Serif" font-size="10.00">Portal</text>
</g>
<!-- payment -->
<g id="payment" class="node"><title>payment</title>
<use x="112.463" y="-95" width="86px" height="36px" xlink:href="#service-symbol"/>
<text text-anchor="middle" x="155.463" y="-74" font-family="Helvetica,sans-Serif" font-size="10.00">Payment</text>
</g>
<!-- eventQueue -->
<g id="node10" class="node"><title>eventQueue</title>
<use x="234.391" y="-195" width="87.2854px" height="26px" xlink:href="#queue-symbol"/>
<text text-anchor="middle" x="278.034" y="-179" font-family="Helvetica,sans-Serif" font-size="10.00">Event ActiveMQ</text>
</g>
<!-- payment&#45;&gt;eventQueue -->
<g id="edge14" class="edge"><title>payment-&gt;eventQueue</title>
<path fill="none" stroke="#003388" stroke-dasharray="5,2" d="M196.421,-95.1161C200.094,-97.7561 203.527,-100.712 206.463,-104 222.678,-122.162 210.206,-136.875 226.463,-155 227.205,-155.828 227.979,-156.634 228.78,-157.419"/>
<polygon fill="#003388" stroke="#003388" points="236.618,-163.929 226.05,-161.002 232.772,-160.735 228.925,-157.54 228.925,-157.54 228.925,-157.54 232.772,-160.735 231.8,-154.078 236.618,-163.929 236.618,-163.929"/>
</g>
<!-- user -->
<g id="user" class="node"><title>user</title>
<use x="112.463" y="-203" width="86px" height="36px" xlink:href="#service-symbol"/>
<text text-anchor="middle" x="155.463" y="-182" font-family="Helvetica,sans-Serif" font-size="10.00">User</text>
</g>
<!-- user&#45;&gt;eventQueue -->
<g id="edge16" class="edge"><title>user-&gt;eventQueue</title>
<path fill="none" stroke="#003388" stroke-dasharray="5,2" d="M198.677,-183.942C206.909,-183.741 215.619,-183.528 224.136,-183.319"/>
<polygon fill="#003388" stroke="#003388" points="234.383,-183.068 224.496,-187.812 229.385,-183.191 224.386,-183.313 224.386,-183.313 224.386,-183.313 229.385,-183.191 224.276,-178.815 234.383,-183.068 234.383,-183.068"/>
</g>
<!-- product -->
<g id="product" class="node"><title>product</title>
<use x="112.463" y="-149" width="86px" height="36px" xlink:href="#service-symbol"/>
<text text-anchor="middle" x="155.463" y="-128" font-family="Helvetica,sans-Serif" font-size="10.00">Product</text>
</g>
<!-- product&#45;&gt;eventQueue -->
<g id="edge15" class="edge"><title>product-&gt;eventQueue</title>
<path fill="none" stroke="#003388" stroke-dasharray="5,2" d="M198.677,-148.981C207.18,-152.519 216.194,-156.269 224.977,-159.924"/>
<polygon fill="#003388" stroke="#003388" points="234.383,-163.838 223.422,-164.151 229.767,-161.917 225.151,-159.996 225.151,-159.996 225.151,-159.996 229.767,-161.917 226.879,-155.841 234.383,-163.838 234.383,-163.838"/>
</g>
<!-- billing -->
<g id="billing" class="node"><title>billing</title>
<use x="357.605" y="-197" width="86px" height="36px" xlink:href="#service-symbol"/>
<text text-anchor="middle" x="400.605" y="-176" font-family="Helvetica,sans-Serif" font-size="10.00">Billing API</text>
</g>
<!-- sqlServer -->
<g id="node6" class="node"><title>sqlServer</title>
<use x="493.605" y="-252" width="42px" height="42px" xlink:href="#database-symbol"/>
<text text-anchor="middle" x="514.605" y="-233" font-family="Helvetica,sans-Serif" font-size="10.00">SQL</text>
<text text-anchor="middle" x="514.605" y="-223" font-family="Helvetica,sans-Serif" font-size="10.00">Server</text>
</g>
<!-- billing&#45;&gt;sqlServer -->
<g id="edge18" class="edge"><title>billing-&gt;sqlServer</title>
<path fill="none" stroke="#003388" stroke-dasharray="5,2" d="M440.157,-197.041C452.437,-202.642 465.913,-208.789 477.984,-214.296"/>
<polygon fill="#003388" stroke="#003388" points="487.314,-218.551 476.349,-218.495 482.765,-216.476 478.216,-214.401 478.216,-214.401 478.216,-214.401 482.765,-216.476 480.084,-210.307 487.314,-218.551 487.314,-218.551"/>
</g>
<!-- loggingJournal -->
<g id="node8" class="node"><title>loggingJournal</title>
<use x="479.605" y="-192" width="70px" height="36px" xlink:href="#component-symbol"/>
<text text-anchor="middle" x="514.605" y="-176" font-family="Helvetica,sans-Serif" font-size="10.00">Logging</text>
<text text-anchor="middle" x="514.605" y="-166" font-family="Helvetica,sans-Serif" font-size="10.00">Journal</text>
</g>
<!-- billing&#45;&gt;loggingJournal -->
<g id="edge19" class="edge"><title>billing-&gt;loggingJournal</title>
<path fill="none" stroke="#003388" stroke-dasharray="5,2" d="M443.704,-177.11C452.131,-176.74 460.99,-176.352 469.482,-175.979"/>
<polygon fill="#003388" stroke="#003388" points="479.603,-175.535 469.81,-180.469 474.607,-175.754 469.612,-175.973 469.612,-175.973 469.612,-175.973 474.607,-175.754 469.415,-171.478 479.603,-175.535 479.603,-175.535"/>
</g>
<!-- riak -->
<g id="node7" class="node"><title>riak</title>
<use x="585.605" y="-158.5" width="56px" height="43px" xlink:href="#cloud-symbol"/>
<text text-anchor="middle" x="613.605" y="-134" font-family="Helvetica,sans-Serif" font-size="10.00">Riak</text>
</g>
<!-- loggingJournal&#45;&gt;riak -->
<g id="edge20" class="edge"><title>loggingJournal-&gt;riak</title>
<path fill="none" stroke="#003388" stroke-dasharray="5,2" d="M549.788,-160.851C558.268,-157.682 567.361,-154.283 575.949,-151.074"/>
<polygon fill="#003388" stroke="#003388" points="585.371,-147.552 577.579,-155.269 580.687,-149.303 576.003,-151.053 576.003,-151.053 576.003,-151.053 580.687,-149.303 574.428,-146.838 585.371,-147.552 585.371,-147.552"/>
</g>
<!-- watchdog -->
<g id="node9" class="node"><title>watchdog</title>
<use x="243.034" y="-146" width="70px" height="36px" xlink:href="#component-symbol"/>
<text text-anchor="middle" x="278.034" y="-125" font-family="Helvetica,sans-Serif" font-size="10.00">Watchdog</text>
</g>
<!-- watchdog&#45;&gt;payment -->
<g id="edge8" class="edge"><title>watchdog-&gt;payment</title>
<path fill="none" stroke="#003388" stroke-dasharray="5,2" d="M207.999,-98.8595 219.784,-103.763 232.009,-108.85 242.883,-113.374"/>
<polygon fill="#003388" stroke="#003388" points="198.677,-94.9807 209.638,-94.6676 203.293,-96.9015 207.91,-98.8223 207.91,-98.8223 207.91,-98.8223 203.293,-96.9015 206.181,-102.977 198.677,-94.9807 198.677,-94.9807"/>
</g>
<!-- watchdog&#45;&gt;user -->
<g id="edge9" class="edge"><title>watchdog-&gt;user</title>
<path fill="none" stroke="#003388" stroke-dasharray="5,2" d="M203.59,-162.619 216.676,-156.534 230.603,-150.057 242.828,-144.372"/>
<polygon fill="#003388" stroke="#003388" points="194.245,-166.965 201.415,-158.668 198.779,-164.856 203.313,-162.748 203.313,-162.748 203.313,-162.748 198.779,-164.856 205.21,-166.828 194.245,-166.965 194.245,-166.965"/>
</g>
<!-- watchdog&#45;&gt;product -->
<g id="edge10" class="edge"><title>watchdog-&gt;product</title>
<path fill="none" stroke="#003388" stroke-dasharray="5,2" d="M208.7,-129.697 220.267,-129.414 232.224,-129.121 242.883,-128.86"/>
<polygon fill="#003388" stroke="#003388" points="198.677,-129.942 208.564,-125.199 203.675,-129.82 208.674,-129.698 208.674,-129.698 208.674,-129.698 203.675,-129.82 208.784,-134.196 198.677,-129.942 198.677,-129.942"/>
</g>
<!-- watchdog&#45;&gt;billing -->
<g id="edge6" class="edge"><title>watchdog-&gt;billing</title>
<path fill="none" stroke="#003388" stroke-dasharray="5,2" d="M313.158,-142.615C323.987,-147.12 336.158,-152.184 347.9,-157.07"/>
<polygon fill="#003388" stroke="#003388" points="357.191,-160.936 346.229,-161.249 352.574,-159.015 347.958,-157.094 347.958,-157.094 347.958,-157.094 352.574,-159.015 349.687,-152.939 357.191,-160.936 357.191,-160.936"/>
</g>
<!-- watchdog&#45;&gt;riak -->
<g id="edge5" class="edge"><title>watchdog-&gt;riak</title>
<path fill="none" stroke="#003388" stroke-dasharray="5,2" d="M313.312,-128.946C376.753,-130.648 509.588,-134.21 575.221,-135.971"/>
<polygon fill="#003388" stroke="#003388" points="585.534,-136.247 575.417,-140.477 580.536,-136.113 575.537,-135.979 575.537,-135.979 575.537,-135.979 580.536,-136.113 575.658,-131.481 585.534,-136.247 585.534,-136.247"/>
</g>
<!-- supportPortal -->
<g id="node11" class="node"><title>supportPortal</title>
<use x="373.605" y="-114" width="54px" height="40px" xlink:href="#portal-symbol"/>
<text text-anchor="middle" x="400.605" y="-96" font-family="Helvetica,sans-Serif" font-size="10.00">Support</text>
<text text-anchor="middle" x="400.605" y="-86" font-family="Helvetica,sans-Serif" font-size="10.00">Portal</text>
</g>
<!-- watchdog&#45;&gt;supportPortal -->
<g id="edge7" class="edge"><title>watchdog-&gt;supportPortal</title>
<path fill="none" stroke="#003388" stroke-dasharray="5,2" d="M313.158,-118.257C328.826,-113.911 347.303,-108.786 363.226,-104.369"/>
<polygon fill="#003388" stroke="#003388" points="373.266,-101.584 364.833,-108.593 368.448,-102.92 363.63,-104.257 363.63,-104.257 363.63,-104.257 368.448,-102.92 362.427,-99.9204 373.266,-101.584 373.266,-101.584"/>
</g>
<!-- eventQueue&#45;&gt;billing -->
<g id="edge17" class="edge"><title>eventQueue-&gt;billing</title>
<path fill="none" stroke="#003388" stroke-dasharray="5,2" d="M321.939,-180.925C330.143,-180.725 338.801,-180.513 347.254,-180.306"/>
<polygon fill="#003388" stroke="#003388" points="357.418,-180.057 347.532,-184.8 352.42,-180.179 347.421,-180.302 347.421,-180.302 347.421,-180.302 352.42,-180.179 347.311,-175.803 357.418,-180.057 357.418,-180.057"/>
</g>
<!-- riakAdmin -->
<g id="node12" class="node"><title>riakAdmin</title>
<use x="487.605" y="-118" width="54px" height="48px" xlink:href="#portal-symbol"/>
<text text-anchor="middle" x="514.605" y="-106" font-family="Helvetica,sans-Serif" font-size="10.00">Riak</text>
<text text-anchor="middle" x="514.605" y="-96" font-family="Helvetica,sans-Serif" font-size="10.00">Admin</text>
<text text-anchor="middle" x="514.605" y="-86" font-family="Helvetica,sans-Serif" font-size="10.00">Web</text>
<text text-anchor="middle" x="514.605" y="-76" font-family="Helvetica,sans-Serif" font-size="10.00">Portal</text>
</g>
<!-- riakAdmin&#45;&gt;riak -->
<g id="edge13" class="edge"><title>riakAdmin-&gt;riak</title>
<path fill="none" stroke="#003388" stroke-dasharray="5,2" d="M541.658,-105.75C552.303,-110.374 564.705,-115.76 576.184,-120.746"/>
<polygon fill="#003388" stroke="#003388" points="585.55,-124.814 574.585,-124.958 580.964,-122.823 576.378,-120.831 576.378,-120.831 576.378,-120.831 580.964,-122.823 578.171,-116.703 585.55,-124.814 585.55,-124.814"/>
</g>
<!-- customer -->
<g id="node13" class="node"><title>customer</title>
<use x="16.3857" y="-230" width="59.6915px" height="36px" xlink:href="#user-symbol"/>
<text text-anchor="middle" x="46.2314" y="-209" font-family="Helvetica,sans-Serif" font-size="10.00">Customer</text>
</g>
<!-- customer&#45;&gt;portal -->
<g id="edge1" class="edge"><title>customer-&gt;portal</title>
<path fill="none" stroke="#003388" stroke-dasharray="5,2" d="M76.0794,-219.924C88.3614,-223.185 102.764,-227.009 115.904,-230.498"/>
<polygon fill="#003388" stroke="#003388" points="125.651,-233.085 114.831,-234.868 120.818,-231.802 115.986,-230.519 115.986,-230.519 115.986,-230.519 120.818,-231.802 117.141,-226.17 125.651,-233.085 125.651,-233.085"/>
</g>
<!-- apiClient -->
<g id="node14" class="node"><title>apiClient</title>
<use x="15.7668" y="-176" width="60.9294px" height="36px" xlink:href="#user-symbol"/>
<text text-anchor="middle" x="46.2314" y="-155" font-family="Helvetica,sans-Serif" font-size="10.00">API Client</text>
</g>
<!-- apiClient&#45;&gt;payment -->
<g id="edge2" class="edge"><title>apiClient-&gt;payment</title>
<path fill="none" stroke="#003388" stroke-dasharray="5,2" d="M63.2863,-139.932C74.3765,-128.775 89.5098,-114.614 104.463,-104 106.117,-102.826 107.829,-101.668 109.579,-100.532"/>
<polygon fill="#003388" stroke="#003388" points="118.553,-95.0536 112.363,-104.105 114.286,-97.6588 110.018,-100.264 110.018,-100.264 110.018,-100.264 114.286,-97.6588 107.673,-96.4232 118.553,-95.0536 118.553,-95.0536"/>
</g>
<!-- apiClient&#45;&gt;user -->
<g id="edge3" class="edge"><title>apiClient-&gt;user</title>
<path fill="none" stroke="#003388" stroke-dasharray="5,2" d="M76.6585,-165.521C84.639,-167.494 93.4831,-169.68 102.278,-171.854"/>
<polygon fill="#003388" stroke="#003388" points="112.137,-174.291 101.35,-176.26 107.283,-173.091 102.429,-171.891 102.429,-171.891 102.429,-171.891 107.283,-173.091 103.509,-167.523 112.137,-174.291 112.137,-174.291"/>
</g>
<!-- apiClient&#45;&gt;product -->
<g id="edge4" class="edge"><title>apiClient-&gt;product</title>
<path fill="none" stroke="#003388" stroke-dasharray="5,2" d="M76.6585,-150.479C84.639,-148.506 93.4831,-146.32 102.278,-144.146"/>
<polygon fill="#003388" stroke="#003388" points="112.137,-141.709 103.509,-148.477 107.283,-142.909 102.429,-144.109 102.429,-144.109 102.429,-144.109 107.283,-142.909 101.35,-139.74 112.137,-141.709 112.137,-141.709"/>
</g>
<!-- devOps -->
<g id="node15" class="node"><title>devOps</title>
<use x="249.034" y="-54" width="58px" height="36px" xlink:href="#user-symbol"/>
<text text-anchor="middle" x="278.034" y="-33" font-family="Helvetica,sans-Serif" font-size="10.00">DevOps</text>
</g>
<!-- devOps&#45;&gt;supportPortal -->
<g id="edge12" class="edge"><title>devOps-&gt;supportPortal</title>
<path fill="none" stroke="#003388" stroke-dasharray="5,2" d="M307.082,-49.7452C324.203,-57.8467 346.016,-68.1686 364.269,-76.8057"/>
<polygon fill="#003388" stroke="#003388" points="373.446,-81.1482 362.482,-80.9385 368.926,-79.0095 364.407,-76.8709 364.407,-76.8709 364.407,-76.8709 368.926,-79.0095 366.331,-72.8033 373.446,-81.1482 373.446,-81.1482"/>
</g>
<!-- devOps&#45;&gt;riakAdmin -->
<g id="edge11" class="edge"><title>devOps-&gt;riakAdmin</title>
<path fill="none" stroke="#003388" stroke-dasharray="5,2" d="M307.175,-39.1848C340.585,-43.2755 396.776,-51.5046 443.605,-65 455.084,-68.308 467.238,-72.8593 478.183,-77.3761"/>
<polygon fill="#003388" stroke="#003388" points="487.444,-81.3043 476.481,-81.5418 482.841,-79.3517 478.238,-77.3991 478.238,-77.3991 478.238,-77.3991 482.841,-79.3517 479.995,-73.2564 487.444,-81.3043 487.444,-81.3043"/>
</g>
</g>
<defs><symbol id="portal-symbol" viewBox="0 0 69.533295 51.158295"><svg version="1.1" width="69.533295" height="51.158295" id="portal-svg">
  <rect id="rect5176" height="45.831501" width="62.269402" y="5.1999655" x="7.1344442" style="fill:#d9d9d9;stroke:#a6a6a6;stroke-width:0.23999999;stroke-linecap:round;stroke-linejoin:round"/>
  <path id="path5180" d="m 7.1356715,51.032271 0,-45.8315095 -7.00262,-5.09239 0,45.8315095 z" style="fill:#737373;stroke:#a6a6a6;stroke-width:0.23999999;stroke-linecap:round;stroke-linejoin:round"/>
  <path id="path5184" d="m 62.400971,0.1078215 7.00263,5.0924 -62.2693595,0 -7.00264,-5.0924 z" style="fill:#bfbfbf;stroke:#a6a6a6;stroke-width:0.23999999;stroke-linecap:round;stroke-linejoin:round"/>
</svg></symbol><symbol id="service-symbol" viewBox="0 0 112 36"><svg version="1.1" width="112" height="36" id="service-symbol-svg">
   <defs>
     <symbol id="component-badge" class="badge" preserveAspectRatio="xMaxYMin" viewBox="-1 -1 14 12" style="fill:#ffffff;stroke:#000000">
        <rect height="10" width="10" x="3" y="0"/>
        <rect height="2" width="6" x="0" y="2"/>
        <rect height="2" width="6" x="0" y="6"/>
      </symbol>
      <symbol id="service-port" class="uml-dingus" preserveAspectRatio="xMaxYMid" viewBox="-1 -1 20 37">
          <line y2="17" x2="8" y1="17" x1="18" style="fill:none;stroke:#000000;stroke-linecap:square;stroke-linejoin:square;marker-end:url(#Ball_Marker)"/>
      </symbol>
      <marker orient="auto" overflow="visible" markerUnits="strokeWidth" id="Ball_Marker" viewBox="-1 -4 8 8" markerWidth="8" markerHeight="8" style="color:#000000;overflow:visible">
      <g id="g4908">
        <circle cx="2.9999986" cy="0" r="2.9999974" id="circle4910" style="fill:none;stroke:currentColor;stroke-width:1"/>
      </g>
    </marker>
    </defs>
    <rect height="35" width="90" y="0" x="18" class="umlbox" style="fill:#ffffff;stroke:#000000;stroke-width:1;"/>
    <use x="90" y="4" xlink:href="#component-badge" width="15" height="11"/>
    <use x="-1" y="0" xlink:href="#service-port" width="20" height="35"/>
</svg></symbol><symbol id="queue-symbol" viewBox="0 0 89.919098 25.633207"><svg version="1.1" width="89.919098" height="25.633207" id="queue-svg">
  <defs id="defs4285">
    <linearGradient id="linearGradient5449" gradientUnits="userSpaceOnUse" x1="0" x2="0" y2="8.5403728" gradientTransform="matrix(1.1749016,0,0,1,0.74114562,1.8908179)">
      <stop offset="0" stop-color="#ccc" id="stop4962"/>
      <stop offset="1" stop-color="#999" id="stop4964"/>
    </linearGradient>
  </defs>
  <path style="fill:#f9f9f9;fill-opacity:1;stroke:#8b8b8b;stroke-width:0.57499999000000002;stroke-linecap:butt;stroke-linejoin:miter;stroke-miterlimit:4;stroke-opacity:1;stroke-dasharray:none" d="m 0.1875,13.016423 c 0,-6.9324905 0.86248,-12.5549504 1.9256,-12.5549504 0.2613,0 0.51095,0.34358 0.73726,0.9590499 0.69682,1.8884401 1.18794,6.36892 1.18794,11.5959005 0,5.22944 -0.4915,9.70829 -1.18794,11.60002 -0.22631,0.61301 -0.47518,0.95493 -0.73726,0.95493 -1.06312,0 -1.9256,-5.61997 -1.9256,-12.55495 l 0,0 z" id="path5284"/>
  <path style="fill:url(#linearGradient5449);stroke:#bfbfbf;stroke-width:0.575;stroke-linecap:butt;stroke-linejoin:miter;stroke-miterlimit:4;stroke-dasharray:none" d="m 4.2658505,12.890818 c 0,-6.9332701 -1.0127652,-12.55571005 -2.260076,-12.55571005 l 85.4666075,0 c 1.24677,0 2.259218,5.62243995 2.259218,12.55571005 0,6.93328 -1.012882,12.55489 -2.259218,12.55489 l -85.4670422,0 c 1.2481685,-8.3e-4 2.2605107,-5.62078 2.2605107,-12.55489 l 0,0 z" id="path5272"/>
  <path style="fill:none;stroke:#f9f9f9;stroke-width:0.675;stroke-linecap:butt;stroke-linejoin:miter;stroke-miterlimit:4;stroke-opacity:1;stroke-dasharray:0.675,0.675;stroke-dashoffset:0" d="m 87.111989,25.434197 c -1.06274,0 -1.9256,-5.61997 -1.9256,-12.55492 0,-6.93248 0.86286,-12.55408005 1.9256,-12.55408005" id="path5286"/>
</svg></symbol><symbol id="database-symbol" viewBox="0 0 41.939701 53.75"><svg version="1.1" width="41.939701" height="53.75" id="queue-svg">
  <defs id="defs4285">
    <linearGradient xlink:href="#linearGradient5285" id="linearGradient5467" gradientUnits="userSpaceOnUse" x1="480.83942" y1="335.48468" x2="506.80215" y2="335.82629" gradientTransform="translate(-480.4978,-309.28125)">
      <stop offset="0" stop-color="#ccc" id="stop4913"/>
      <stop offset=".5" stop-color="white" id="stop4915"/>
      <stop offset="1" stop-color="#aaa" id="stop4917"/>
    </linearGradient>
  </defs>
  <path style="fill:url(#linearGradient5467);fill-opacity:1;stroke:#4c4c4c;stroke-width:1;stroke-linecap:round;stroke-linejoin:round" d="m 0.50883,43.4675 0,-38.19 c 0,-2.63511 9.16561,-4.77375 20.45895,-4.77375 11.29334,0 20.45895,2.13864 20.45895,4.77375 l 0,38.19 c 0,2.63511 -9.16561,4.77375 -20.45895,4.77375 -11.29334,0 -20.45895,-2.13864 -20.45895,-4.77375 m 0,-38.19 c 0,2.63511 9.16561,4.77375 20.45895,4.77375 11.29334,0 20.45895,-2.13864 20.45895,-4.77375" id="path5120"/>
  <ellipse d="m 521.92456,314.52087 c 0,2.61555 -9.1598,4.73588 -20.45898,4.73588 -11.29919,0 -20.45899,-2.12033 -20.45899,-4.73588 0,-2.61555 9.1598,-4.73587 20.45899,-4.73587 11.29918,0 20.45898,2.12032 20.45898,4.73587 z" style="fill:#efefef;stroke:#4c4c4c;stroke-width:1;stroke-linecap:round;stroke-linejoin:round;fill-opacity:1" cx="501.46558" cy="314.52087" rx="20.458982" ry="4.7358727" id="ellipse5128" transform="translate(-480.4978,-309.28125)"/>
</svg></symbol><symbol id="component-symbol" viewBox="0 0 91 36"><svg version="1.1" width="91" height="36" id="component-svg">
   <defs>
     <symbol id="component-badge" class="badge" preserveAspectRatio="xMaxYMin" viewBox="-1 -1 14 12" style="fill:#ffffff;stroke:#000000;stroke-width:0.75">
        <rect height="10" width="10" x="3" y="0"/>
        <rect height="2" width="6" x="0" y="2"/>
        <rect height="2" width="6" x="0" y="6"/>
      </symbol>
    </defs>
    <g>
      <rect height="35" width="90" y="0" x="0" class="umlbox" style="fill:#ffffff;stroke:#000000;stroke-width:1;"/>
        <use x="72" y="4" xlink:href="#component-badge" width="15" height="11"/>
   </g>
</svg></symbol><symbol id="cloud-symbol" viewBox="0 0 73.220779 54.821011"><svg version="1.1" width="73.220779" height="54.821011" id="cloud-svg">
  <defs id="defs6023">
    <linearGradient x1="322.1673" x2="390.31808" id="Gradient_6" gradientUnits="userSpaceOnUse" y1="209.80128" y2="261.05518" gradientTransform="translate(-320.03499,-207.81336)">
      <stop offset="0" stop-color="white" id="stop4933"/>
      <stop offset="1" stop-color="#5285cc" id="stop4935"/>
    </linearGradient>
  </defs>
  <path id="path5132" d="m 65.98434,24.363914 c 12.8003,3.04652 7.69587,28.69319 -12.72348,24.31712 -1.89446,8.53036 -25.63942,7.14579 -25.48418,0 -14.88881,9.13955 -33.9158197,-9.08453 -21.1535297,-18.22408 -15.31411,-4.43109 0.19325,-28.30522 12.7614897,-24.31712 1.00584,-6.64720004 23.47409,-8.97336 25.44617,0 12.7227,-9.58311 39.25152,5.15146 21.15353,18.22408 z" style="fill:#c2d5ff;stroke:#000000;stroke-width:0.5;stroke-linecap:butt;stroke-linejoin:miter"/>
  <path id="path5136" d="m 8.6138303,30.246944 c -11.91749,-2.83641 -7.16509,-26.71436 11.8459597,-22.64009 1.76381,-7.94206004 23.87111,-6.65297005 23.72658,0 13.86194,-8.50924004 31.57669,8.45802 19.6946,16.96727 14.25792,4.1255 -0.17992,26.35314 -11.88136,22.64009 -0.93646,6.18878 -21.85511,8.35451 -23.69118,0 -11.84522,8.92221 -36.5443997,-4.79619 -19.6945997,-16.96727 z" style="fill:url(#Gradient_6);fill-opacity:1;stroke:#808080;stroke-width:2;stroke-linecap:butt;stroke-linejoin:miter"/>
</svg></symbol><symbol id="user-symbol" viewBox="0 0 75 43.669998"><svg version="1.1" width="75" height="43.669998" id="user-svg">
  <defs id="defs4285">
    <linearGradient x1="0" x2="1" id="Gradient_8" gradientUnits="userSpaceOnUse">
      <stop offset="0" stop-color="#c4bebc" id="stop4968"/>
      <stop offset="1" stop-color="#d7d0cd" id="stop4970"/>
    </linearGradient>
    <linearGradient xlink:href="#Gradient_8" id="linearGradient5718" gradientTransform="matrix(0,-34.0216,34.0216,0,14.0145,58.346588)"/>
    <linearGradient xlink:href="#Gradient_8" id="linearGradient5720" gradientTransform="matrix(0,-8.86476,8.86476,0,13.79838,24.254748)"/>
  </defs>
  <g id="user-symbol" transform="translate(0,-14.677183)">
    <path style="fill:#a19d9c;stroke:none" d="m 21.599684,25.40053 0.525081,-0.32265 -0.281108,-0.75317 -1.027206,-1.028961 -2.850915,0 -0.773494,0 -0.388072,0 -0.494153,0 0.571071,-1.481579 0.733711,-4.164538 0.02033,-0.11049 -1.603575,-1.600019 c -0.780581,-0.782343 -1.856411,-1.264135 -3.046273,-1.264135 -1.191632,0 -2.268347,0.481792 -3.04716,1.264135 -0.780558,0.778807 -1.260584,1.856374 -1.260584,3.04535 0,1.188976 0.480026,2.266587 1.260584,3.045394 l 1.028987,1.02896 0,0 c -2e-6,0.0035 -2e-6,0.0035 0,0.0035 l 0.23691,0.233384 -2.425698,0 -0.789413,0 -2.8332045,0 L 0,37.120599 l 1.0289719,1.028982 0.9114129,0 0.6090629,-1.028982 1.0723131,0 1.8351868,-4.916795 2.5308804,-4.282077 0,1.280905 0,12.564274 0.00353,0 0,15.549531 1.0289719,1.030751 0.6665569,0 0.1644059,-1.030751 1.6778383,0 0,-10.417043 0.84422,-5.250054 2.070333,0 0,1.02896 0,14.638137 1.02898,1.030751 0.735485,0 0.293495,-1.030751 1.479809,0 0,-16.135612 -0.01768,0 0,-13.546418 0.68863,-0.423445 0.338576,0.911395 3.354779,8.997363 1.027232,1.02897 0.804423,0 0.414612,-1.02897 1.376377,0 -4.368716,-11.71919 0,0 z" id="path5554"/>
    <path style="fill:url(#linearGradient5718);stroke:none" d="m 22.123867,25.078158 -0.28111,-0.75317 -2.850889,0 -0.771754,0 -8.412994,0 -0.7911805,0 -2.8332283,0 L 1.029,38.149855 l 0.9114003,0 2.7130087,0 3.3353256,-8.946952 1.0272049,-2.759866 0,16.351343 0.0053,0 0,15.552208 0.6665457,0 2.8694478,0 0,-15.668005 1.887338,0 1.028969,0 0,15.668005 0.735491,0 2.800499,0 0,-16.134758 -0.01766,0 0,-14.088297 0,-1.729998 4.381983,11.75632 0.805309,0 2.82084,0 z" id="path5556"/>
    <circle d="m 18.230767,19.822369 c 0,2.447939 -1.984447,4.432386 -4.432387,4.432386 -2.44794,0 -4.432387,-1.984447 -4.432387,-4.432386 0,-2.44794 1.984447,-4.432387 4.432387,-4.432387 2.44794,0 4.432387,1.984447 4.432387,4.432387 z" style="fill:url(#linearGradient5720);stroke:none" cx="13.79838" cy="19.822369" r="4.4323869" id="circle5558"/>
  </g>
</svg></symbol></defs></svg>
